<!--?xml version="1.0" standalone="no"?-->
              <svg id="sw-js-blob-svg" viewBox="0 0 100 100" xmlns="http://www.w3.org/2000/svg" version="1.1">
                    <defs> 
                        <linearGradient id="sw-gradient" x1="0" x2="1" y1="1" y2="0">
                            <stop id="stop1" stop-color="rgba(248, 117, 55, 1)" offset="0%"></stop>
                            <stop id="stop2" stop-color="rgba(251, 168, 31, 1)" offset="100%"></stop>
                        </linearGradient>
                    </defs>
                <path fill="url(#sw-gradient)" d="M20.9,-39.1C25.4,-33.6,26.2,-24.6,29.4,-17.5C32.5,-10.4,38.1,-5.2,40,1.1C41.9,7.4,40.2,14.8,36.1,20.4C32.1,26,25.7,29.7,19.3,33.9C12.9,38.1,6.4,42.7,-0.8,44.1C-8,45.4,-16,43.5,-22.4,39.3C-28.8,35.1,-33.5,28.6,-35.5,21.7C-37.5,14.7,-36.7,7.4,-36.1,0.4C-35.4,-6.6,-35,-13.3,-33,-20.2C-31,-27.2,-27.6,-34.5,-21.9,-39.3C-16.1,-44.1,-8.1,-46.4,0.1,-46.5C8.2,-46.6,16.4,-44.6,20.9,-39.1Z" width="100%" height="100%" transform="translate(50 50)" stroke-width="0" style="transition: all 0.3s ease 0s;"></path>
              </svg>