<!--?xml version="1.0" standalone="no"?-->
              <svg id="sw-js-blob-svg" viewBox="0 0 100 100" xmlns="http://www.w3.org/2000/svg" version="1.1">
                    <defs> 
                        <linearGradient id="sw-gradient" x1="0" x2="1" y1="1" y2="0">
                            <stop id="stop1" stop-color="rgba(182.968, 84.022, 37.193, 1)" offset="0%"></stop>
                            <stop id="stop2" stop-color="rgba(251, 168, 31, 1)" offset="100%"></stop>
                        </linearGradient>
                    </defs>
                <path fill="url(#sw-gradient)" d="M18.1,-31.4C24.8,-27.4,32.6,-25.4,37,-20.5C41.3,-15.6,42.2,-7.8,39.9,-1.3C37.6,5.1,32.1,10.3,28.5,16.3C24.8,22.4,22.9,29.4,18.4,33.2C14,37,7,37.6,-0.4,38.3C-7.8,39.1,-15.6,39.8,-22.4,37.4C-29.1,34.9,-34.8,29.1,-35.9,22.4C-36.9,15.6,-33.3,7.8,-33.5,-0.1C-33.7,-8.1,-37.8,-16.1,-36.5,-22.3C-35.1,-28.5,-28.2,-32.8,-21.3,-36.6C-14.3,-40.5,-7.1,-43.9,-0.7,-42.6C5.7,-41.3,11.3,-35.4,18.1,-31.4Z" width="100%" height="100%" transform="translate(50 50)" stroke-width="0" style="transition: all 0.3s ease 0s;" stroke="url(#sw-gradient)"></path>
              </svg>