<?xml version="1.0" ?>

<!DOCTYPE svg  PUBLIC '-//W3C//DTD SVG 1.1//EN'  'http://www.w3.org/Graphics/SVG/1.1/DTD/svg11.dtd'>

<!-- Uploaded to: SVG Repo, www.svgrepo.com, Generator: SVG Repo Mixer Tools -->
<svg fill="#000000" width="800px" height="800px" viewBox="0 0 512 512" enable-background="new 0 0 512 512" id="Screw_x5F_bolts" version="1.1" xml:space="preserve" xmlns="http://www.w3.org/2000/svg" xmlns:xlink="http://www.w3.org/1999/xlink">
<style type="text/css">
		.rotate {
        transform-origin: center;
        transform-box: fill-box;
		animation: rotate 5s linear infinite;
		}
		@keyframes rotate {
		0% {
		transform: rotate(0deg);
		}
		100% {
		transform: rotate(360deg);
		}
		}

        .half-rotate{
            transform-origin: center;
        transform-box: fill-box;
		animation: half-rotate 2s alternate infinite;
        }
        @keyframes half-rotate {
		0% {
		transform: rotate(0deg);
		}
		100% {
		transform: rotate(40deg);
		}
		}
        .rev-rotate{
            transform-origin: center;
        transform-box: fill-box;
		animation: rev-rotate 2s alternate infinite;
        }
        @keyframes rev-rotate {
		0% {
		transform: rotate(0deg);
		}
		100% {
		transform: rotate(-40deg);
		}
		}
	</style>

<g id="Screw_x5F_bolts_1_">

<g>
<path class="rev-rotate" d="M438.434,338.701l47.666-47.667L383.727,188.662l-47.667,47.667l24.282,24.281l-22.565,22.564l-7.771-4.225l-5.73,10.543    l4.653,2.53l-10.025,10.026l-7.772-4.226l-5.73,10.543l4.654,2.53l-10.024,10.025l-7.772-4.226l-5.73,10.543l4.654,2.53    l-9.896,9.896l-8.339-4.534l-5.731,10.543l5.223,2.84l-10.025,10.024l-8.339-4.533l-5.731,10.543l5.222,2.839l-10.024,10.024    l-8.339-4.533l-5.731,10.543l5.222,2.839l-12.111,12.111l53.81,53.811l28.021-28.021l7.203,3.916l5.73-10.543l-4.086-2.222    l10.025-10.025l7.204,3.916l5.729-10.543l-4.085-2.221l10.024-10.025l7.204,3.916l5.73-10.543l-4.086-2.221l9.896-9.896    l7.771,4.226l5.731-10.543l-4.654-2.53l10.024-10.025l7.772,4.226l5.729-10.543l-4.654-2.53l10.025-10.025l7.771,4.225    l5.731-10.543l-4.654-2.529l6.655-6.656L438.434,338.701z M383.727,205.632l85.402,85.402l-30.695,30.696l-15.797-15.796l0,0    l-26.905-26.905l-42.701-42.701L383.727,205.632z M276.39,435.211l-36.839-36.84l6.135-6.135l47.731,25.947L276.39,435.211z     M302.265,409.336l-47.73-25.947l10.024-10.025l47.731,25.947L302.265,409.336z M321.139,390.463l-47.731-25.947l10.025-10.025    l47.731,25.947L321.139,390.463z M340.012,371.59l-47.731-25.948l9.896-9.896l47.731,25.947L340.012,371.59z M358.756,352.846    l-47.731-25.947l10.024-10.025l47.731,25.947L358.756,352.846z M377.629,333.973l-47.731-25.947l10.025-10.026l47.731,25.948    L377.629,333.973z M396.502,315.1l-47.731-25.949l20.056-20.055l18.42,18.419l18.42,18.42L396.502,315.1z"/>

</g>

</g>

</svg>