<?xml version="1.0" encoding="iso-8859-1"?>
<!-- Uploaded to: SVG Repo, www.svgrepo.com, Generator: SVG Repo Mixer Tools -->
<svg fill="#000000" height="800px" width="800px" version="1.1" id="Layer_1" xmlns="http://www.w3.org/2000/svg" xmlns:xlink="http://www.w3.org/1999/xlink" 
	 viewBox="0 0 511.999 511.999" xml:space="preserve">
<g>
	<g>
		<path d="M508.969,291.987c-1.934-3.103-4.035-6.067-6.271-8.899h-58.656c-6.575,0-11.906-5.331-11.906-11.907
			c0-6.576,5.331-11.907,11.907-11.907h31.284c-14.774-8.649-31.791-13.423-49.465-13.423H92.181l-57.03-80.939H0v57.203h22.135
			c6.576,0,11.907,5.331,11.907,11.907c0,6.576-5.331,11.907-11.907,11.907H2.314c1.442,6.262,3.546,12.373,6.298,18.223
			l10.993,12.839c24.615,28.752,60.573,45.303,98.424,45.303h72.939c3.65-15.178,17.33-26.496,33.611-26.496h112.837
			c16.282,0,29.963,11.316,33.612,26.496h121.117C507.702,322.293,517.195,305.191,508.969,291.987z"/>
	</g>
</g>
<g>
	<g>
		<path d="M337.416,313.658H224.579c-9.216,0-16.714,7.498-16.714,16.715s7.498,16.714,16.714,16.714h112.837
			c9.216,0,16.715-7.498,16.715-16.714S346.632,313.658,337.416,313.658z"/>
	</g>
</g>
</svg>