<svg width="569" height="202" viewBox="0 0 569 202" fill="none" xmlns="http://www.w3.org/2000/svg">
<path d="M134.7 63.8C134.7 72.7 133.4 81 130.8 88.8C128.2 96.6 124.4 103.4 119.5 109.1C114.6 114.8 108.5 119.4 101.3 122.7C94.1 126 86 127.6 76.9 127.6C67.8 127.6 59.7 126 52.4 122.7C45.2 119.4 39.1 114.9 34.2 109.1C29.3 103.4 25.5 96.6 22.9 88.8C20.3 81 19 72.7 19 63.8C19 54.9 20.3 46.6 22.9 38.8C25.5 31 29.3 24.3 34.2 18.5C39.1 12.8 45.2 8.19999 52.4 4.89999C59.6 1.59999 67.8 0 76.9 0C86 0 94.1 1.59999 101.3 4.89999C108.5 8.19999 114.5 12.7 119.5 18.5C124.4 24.2 128.2 31 130.8 38.8C133.4 46.6 134.7 54.9 134.7 63.8ZM26.4 63.8C26.4 71.6 27.5 79 29.8 86C32.1 92.9 35.4 99 39.7 104.2C44 109.4 49.3 113.5 55.6 116.6C61.8 119.7 69 121.2 76.9 121.2C84.9 121.2 91.9 119.7 98.1 116.6C104.3 113.5 109.5 109.4 113.9 104.2C118.2 99 121.5 93 123.8 86C126.1 79.1 127.2 71.7 127.2 63.8C127.2 55.9 126.1 48.6 123.8 41.6C121.5 34.7 118.2 28.6 113.9 23.4C109.6 18.2 104.3 14.1 98.1 11C91.9 7.9 84.8 6.39999 76.9 6.39999C68.9 6.39999 61.8 7.9 55.6 11C49.3 14.1 44.1 18.2 39.7 23.4C35.4 28.6 32.1 34.6 29.8 41.6C27.6 48.6 26.4 56 26.4 63.8Z" fill="black"/>
<path d="M223.9 124.7H217.4V105.9H217.1C216 109.2 214.3 112.1 212.2 114.7C210.1 117.3 207.7 119.4 204.9 121.3C202.1 123.1 199.1 124.5 195.8 125.4C192.5 126.3 189.2 126.8 185.7 126.8C180.6 126.8 176.2 126.2 172.7 124.9C169.1 123.7 166.2 122 163.9 120C161.6 118 159.8 115.7 158.5 113.1C157.2 110.5 156.3 108 155.7 105.3C155.1 102.7 154.8 100.2 154.7 97.7C154.6 95.3 154.5 93.1 154.5 91.3V37.1H161V92.5C161 94.8 161.2 97.5 161.5 100.8C161.8 104.1 162.8 107.2 164.5 110.2C166.1 113.2 168.6 115.8 171.9 118C175.2 120.2 179.9 121.2 185.9 121.2C190.8 121.2 195.2 120.3 199.1 118.5C203 116.7 206.3 114.2 209.1 110.9C211.8 107.7 213.9 103.8 215.3 99.3C216.7 94.8 217.4 89.9 217.4 84.6V37.2H223.9V124.7Z" fill="black"/>
<path d="M254.7 56.5H255.2C256 53.7 257.4 51 259.5 48.5C261.6 46 264.2 43.8 267.2 42C270.2 40.2 273.6 38.8 277.3 37.8C281 36.8 284.8 36.4 288.8 36.5V43C285.4 42.5 281.5 42.9 277.1 44C272.7 45.1 268.5 47.6 264.6 51.5C263 53.2 261.6 54.9 260.4 56.4C259.2 58 258.2 59.8 257.4 61.7C256.6 63.6 256 65.8 255.5 68.2C255 70.6 254.8 73.4 254.6 76.7V124.6H248.2V37H254.7V56.5Z" fill="black"/>
<path d="M388.4 37.7C388.2 32.5 387.1 27.9 385.1 24.1C383.1 20.2 380.4 17 377 14.4C373.6 11.8 369.5 9.79998 364.8 8.49998C360.1 7.19998 354.9 6.49998 349.4 6.49998C346 6.49998 342.3 6.89998 338.4 7.69998C334.5 8.49998 330.8 9.89998 327.5 11.9C324.1 13.9 321.4 16.6 319.2 19.9C317 23.3 316 27.4 316 32.4C316 37.3 317.2 41.3 319.6 44.3C322 47.4 325.1 49.8 329 51.7C332.9 53.6 337.3 55.1 342.3 56.2C347.3 57.3 352.4 58.4 357.5 59.4C362.7 60.4 367.8 61.6 372.8 63.1C377.7 64.5 382.2 66.5 386.1 68.9C390 71.3 393.2 74.5 395.6 78.4C398 82.3 399.2 87.2 399.2 93.1C399.2 99.5 397.8 104.8 395.1 109.1C392.4 113.4 388.9 116.9 384.8 119.7C380.6 122.4 376 124.4 371 125.6C365.9 126.8 361.1 127.4 356.4 127.4C349.2 127.4 342.5 126.6 336.3 125.1C330 123.6 324.6 121.1 319.9 117.6C315.2 114.1 311.6 109.7 308.9 104.2C306.2 98.7 305.9 92.1 306.1 84.3H312.6C312.3 91 313.2 96.7 315.5 101.3C317.8 105.9 320.9 109.7 325 112.6C329 115.6 333.8 117.7 339.2 119C344.7 120.3 350.4 121 356.4 121C360 121 363.9 120.5 368.1 119.6C372.2 118.7 376.1 117.2 379.5 115C383 112.8 385.9 110 388.2 106.5C390.5 103 391.7 98.5 391.7 93.2C391.7 88.1 390.5 83.9 388.1 80.7C385.7 77.5 382.6 74.8 378.6 72.9C374.7 70.9 370.2 69.3 365.3 68.1C360.4 66.9 355.3 65.8 350 64.8C344.9 63.8 339.8 62.6 334.8 61.2C329.8 59.8 325.4 58 321.5 55.7C317.6 53.4 314.5 50.4 312.1 46.7C309.7 43 308.5 38.3 308.5 32.5C308.5 26.7 309.7 21.7 312.2 17.6C314.6 13.5 317.8 10.1 321.7 7.49998C325.6 4.89998 330 3.09998 334.9 1.89998C339.8 0.699979 344.6 0.0999756 349.4 0.0999756C355.8 0.0999756 361.7 0.799982 367.2 2.19998C372.7 3.59998 377.5 5.79997 381.7 8.79997C385.8 11.8 389.2 15.7 391.7 20.5C394.2 25.3 395.6 31 396 37.7H388.4Z" fill="black"/>
<path d="M411 37H418.7L451.3 117L481.3 37H488.6L451.1 134C449.3 138.3 447.6 142 446.1 145.2C444.6 148.3 442.8 150.6 440.9 152.1C438.6 153.9 435.9 155 432.8 155.4C429.7 155.8 425.6 156 420.4 156V150.4C425.1 150.4 428.7 150 431.3 149.3C433.9 148.6 436.4 147.1 438.6 144.8C439.8 143.5 441.2 141.2 442.5 137.9C443.9 134.5 445.6 130 447.6 124.2L411 37Z" fill="black"/>
<path d="M505.5 95.5C505.7 99.6 506.6 103.2 508.2 106.3C509.8 109.4 511.9 112.1 514.4 114.3C516.9 116.5 519.9 118.2 523.4 119.3C526.8 120.4 530.5 121 534.5 121C537.3 121 540.4 120.7 543.6 120.2C546.8 119.7 549.8 118.8 552.6 117.4C555.4 116 557.7 114.1 559.5 111.7C561.3 109.3 562.2 106.2 562.2 102.4C562.2 97.5 560.7 93.8 557.8 91.3C554.8 88.8 551.1 86.9 546.6 85.5C542.1 84.1 537.3 83 532.1 82.2C526.9 81.3 522.1 80.1 517.6 78.4C513.1 76.7 509.4 74.3 506.4 71.2C503.4 68.1 502 63.5 502 57.5C502 53.2 503 49.6 504.9 46.7C506.8 43.8 509.3 41.5 512.3 39.8C515.3 38.1 518.7 36.9 522.4 36.1C526.2 35.4 529.9 35 533.7 35C538.2 35 542.5 35.5 546.5 36.5C550.5 37.5 553.9 39.2 556.8 41.4C559.7 43.7 562 46.6 563.6 50.1C565.2 53.6 566.1 57.9 566.1 62.9H559.6C559.6 58.9 558.9 55.5 557.6 52.7C556.3 49.9 554.5 47.6 552.1 45.8C549.8 44 547 42.7 543.8 41.9C540.6 41 537.2 40.6 533.6 40.6C530.6 40.6 527.7 40.9 524.6 41.5C521.6 42.1 518.9 43 516.5 44.4C514.1 45.8 512.2 47.5 510.6 49.7C509.1 51.9 508.3 54.5 508.3 57.5C508.3 61 509.2 63.9 510.9 66C512.6 68.2 514.8 69.9 517.6 71.2C520.4 72.5 523.5 73.6 527 74.4C530.5 75.2 534 76 537.5 76.8C541.8 77.6 545.9 78.5 549.7 79.6C553.5 80.7 556.8 82.2 559.6 84C562.4 85.9 564.6 88.3 566.2 91.2C567.8 94.2 568.6 97.9 568.6 102.5C568.6 107.3 567.5 111.2 565.4 114.3C563.2 117.4 560.5 119.8 557.2 121.7C553.9 123.6 550.2 124.9 546.2 125.6C542.2 126.3 538.2 126.7 534.4 126.7C529.4 126.7 524.8 126 520.5 124.7C516.2 123.4 512.5 121.4 509.3 118.7C506.1 116 503.6 112.8 501.8 108.9C500 105 499 100.5 498.9 95.4H505.5V95.5Z" fill="black"/>
<path d="M0 60.2L60.4 35L0 12V60.2Z" fill="#F39208"/>
</svg>
