<?xml version="1.0" encoding="iso-8859-1"?>
<!-- Uploaded to: SVG Repo, www.svgrepo.com, Generator: SVG Repo Mixer Tools -->
<svg fill="#000000" height="800px" width="800px" version="1.1" id="Layer_1" xmlns="http://www.w3.org/2000/svg" xmlns:xlink="http://www.w3.org/1999/xlink" 
	 viewBox="0 0 512.002 512.002" xml:space="preserve">
	 <style type="text/css">
		.rotate {
        transform-origin: center;
        transform-box: fill-box;
		animation: rotate 5s linear infinite;
		}
		@keyframes rotate {
		0% {
		transform: rotate(0deg);
		}
		100% {
		transform: rotate(360deg);
		}
		}
	</style>
<g>
	<g>
		<path d="M509.828,252.64L390.188,41.502c-2.969-5.24-8.527-8.479-14.55-8.479H136.362c-6.023,0-11.58,3.239-14.549,8.479
			L2.174,252.64c-2.959,5.221-2.893,11.627,0.172,16.786l119.639,201.371c3.014,5.073,8.478,8.182,14.378,8.182h239.277
			c5.9,0,11.363-3.109,14.378-8.182l119.639-201.371C512.721,264.267,512.787,257.861,509.828,252.64z M366.122,445.531H145.878
			L36.058,260.684l110.05-194.215h219.786l110.05,194.215L366.122,445.531z" class="rotate"/>
	</g>
</g>
<g>
	<g>
		<path d="M256,143.817c-64.549,0-117.063,52.515-117.063,117.063S191.451,377.944,256,377.944s117.064-52.515,117.064-117.064
			C373.063,196.332,320.55,143.817,256,143.817z M256,344.498c-46.106,0-83.617-37.51-83.617-83.617
			c0-46.106,37.51-83.617,83.617-83.617c46.106,0,83.617,37.51,83.617,83.617S302.107,344.498,256,344.498z"/>
	</g>
</g>
</svg>