<?xml version="1.0" encoding="iso-8859-1"?>
<!-- Uploaded to: SVG Repo, www.svgrepo.com, Generator: SVG Repo Mixer Tools -->
<svg fill="#000000" height="800px" width="800px" version="1.1" id="Layer_1" xmlns="http://www.w3.org/2000/svg" xmlns:xlink="http://www.w3.org/1999/xlink" 
	 viewBox="0 0 512 512" xml:space="preserve">
<g>
	<g>
		<path d="M459.665,187.733H409.6v-15.932c0-10.044-8.166-18.202-18.202-18.202h-31.863c-10.035,0-18.202,8.158-18.202,18.202
			v24.465H204.8v-59.733h15.932c10.035,0,18.202-8.166,18.202-18.202V86.468c0-10.044-8.166-18.202-18.202-18.202H204.8V18.202
			C204.8,8.158,196.634,0,186.598,0H86.468C76.433,0,68.267,8.158,68.267,18.202v50.065H52.335
			c-10.035,0-18.202,8.158-18.202,18.202v31.863c0,10.035,8.166,18.202,18.202,18.202h15.932v238.933H52.335
			c-10.035,0-18.202,8.158-18.202,18.202v31.863c0,10.035,8.166,18.202,18.202,18.202h15.932v50.065
			c0,10.035,8.166,18.202,18.202,18.202h100.13c10.035,0,18.202-8.166,18.202-18.202v-50.065h15.932
			c10.035,0,18.202-8.166,18.202-18.202v-31.863c0-10.044-8.166-18.202-18.202-18.202H204.8v-59.733h136.533v24.465
			c0,10.035,8.166,18.202,18.202,18.202h31.863c10.035,0,18.202-8.166,18.202-18.202v-15.932h50.065
			c10.035,0,18.202-8.166,18.202-18.202v-100.13C477.867,195.891,469.7,187.733,459.665,187.733z M220.732,392.533
			c0.623,0,1.135,0.503,1.135,1.135v31.863c0,0.623-0.512,1.135-1.135,1.135h-24.465H76.8H52.335c-0.623,0-1.135-0.512-1.135-1.135
			v-31.863c0-0.631,0.512-1.135,1.135-1.135H76.8h119.467H220.732z M196.267,119.467H76.8H52.335c-0.623,0-1.135-0.512-1.135-1.135
			V86.468c0-0.631,0.512-1.135,1.135-1.135H76.8h119.467h24.465c0.623,0,1.135,0.503,1.135,1.135v31.863
			c0,0.623-0.512,1.135-1.135,1.135H196.267z M392.533,196.267v119.467v24.465c0,0.623-0.512,1.135-1.135,1.135h-31.863
			c-0.623,0-1.135-0.512-1.135-1.135v-24.465V196.267v-24.465c0-0.631,0.512-1.135,1.135-1.135h31.863
			c0.623,0,1.135,0.503,1.135,1.135V196.267z"/>
	</g>
</g>
</svg>