<?xml version="1.0" encoding="iso-8859-1"?>
<!-- Uploaded to: SVG Repo, www.svgrepo.com, Generator: SVG Repo Mixer Tools -->
<svg fill="#000000" height="800px" width="800px" version="1.1" id="Layer_1" xmlns="http://www.w3.org/2000/svg" xmlns:xlink="http://www.w3.org/1999/xlink" 
	 viewBox="0 0 511.999 511.999" xml:space="preserve">
	 <style type="text/css">
		.scale {
        transform-origin: center;
        transform-box: fill-box;
		animation: scale 5s linear infinite;
		}
		@keyframes scale {
		0% {
		transform: scale(0.5);
		}
		100% {
		transform: scale(1);
		}
		}
	</style>
<g>
	<g>
		<g>
			
			<path class="scale" d="M467.26,322.18c-0.133-0.133-0.27-0.26-0.411-0.381c-17.25-17.455-26.743-40.56-26.744-65.125
				c0.001-24.56,9.488-47.659,26.73-65.115c0.147-0.126,0.288-0.257,0.425-0.395c16.974-16.97,26.322-39.535,26.322-63.539
				c0-49.544-40.307-89.851-89.849-89.851c-49.542,0-89.848,40.307-89.848,89.851c0,24.003,9.349,46.569,26.322,63.538
				c0.133,0.133,0.272,0.261,0.414,0.384c17.249,17.455,26.74,40.56,26.739,65.124c0,24.565-9.491,47.669-26.741,65.125
				c-0.142,0.122-0.279,0.25-0.413,0.383c-16.974,16.969-26.322,39.534-26.322,63.54c0,49.542,40.306,89.848,89.848,89.848
				c49.542,0,89.848-40.307,89.848-89.85C493.581,361.714,484.234,339.149,467.26,322.18z M351.268,180.093
				c-0.132-0.133-0.269-0.259-0.409-0.381c-13.771-13.972-21.346-32.446-21.346-52.087c0-35.647,25.263-65.496,58.822-72.607
				c32.182,6.72,64.952,35.357,64.952,72.607c0,19.636-7.574,38.107-21.337,52.078c-0.144,0.124-0.283,0.254-0.419,0.39
				c-19.035,19.037-30.105,43.911-31.551,70.584c-4.215-6.618-9.183-12.822-14.861-18.5c-2.047-2.048-4.211-4.04-6.451-5.949
				C373.638,208.97,364.331,193.155,351.268,180.093z M374.696,298.375c1.727-4.143,3.196-8.395,4.394-12.734
				c2.996,9.171,4.209,18.927,3.474,28.707c-0.578,7.688-2.354,15.18-5.205,22.226C378.954,323.664,378.135,310.556,374.696,298.375
				z M350.856,333.634c0.141-0.122,0.277-0.248,0.408-0.38c4.112-4.112,7.846-8.5,11.199-13.116
				c0.838,17.659-3.951,36.027-13.666,50.967c-5.887,3.807-12.28,6.748-19.037,8.747
				C331.116,362.421,338.47,346.201,350.856,333.634z M330.23,395.918c9.959-2.455,19.325-6.568,27.807-12.175l0.668,0.493
				c0.452-0.613,0.892-1.238,1.33-1.862c4.268-2.991,8.307-6.358,12.056-10.109c15.195-15.193,24.448-35.347,26.057-56.746
				c1.522-20.251-3.87-40.42-15.182-57.117c0.009-0.576,0.022-1.151,0.022-1.729c0-1.065-0.021-2.126-0.05-3.186
				c11.822,15.865,18.216,35.053,18.216,55.246c0,24.775-9.619,48.04-27.088,65.507c-12.063,12.064-26.952,20.415-43.402,24.411
				C330.503,397.744,330.356,396.834,330.23,395.918z M388.337,458.324c-20.724-4.389-38.27-17.456-48.671-35.202
				c10.174-5.143,19.443-11.825,27.611-19.992l17.84-17.842c19.013-19.012,30.066-43.894,31.499-70.602
				c4.23,6.64,9.215,12.866,14.916,18.567c0.131,0.131,0.268,0.258,0.407,0.379c13.77,13.969,21.345,32.443,21.345,52.087
				C453.286,422.967,420.518,451.605,388.337,458.324z M434.254,453.346c3.707-2.971,7.226-6.19,10.498-9.664
				c15.581-16.547,24.161-37.133,24.161-57.963c0-24.006-9.349-46.573-26.323-63.539c-0.132-0.133-0.269-0.26-0.409-0.381
				c-17.251-17.455-26.744-40.561-26.744-65.127c0-24.56,9.487-47.659,26.732-65.117c0.146-0.125,0.285-0.255,0.422-0.392
				c16.974-16.971,26.322-39.535,26.322-63.538c0-20.832-8.581-41.417-24.162-57.964c-3.273-3.476-6.795-6.696-10.503-9.668
				c25.743,11.662,43.706,37.581,43.706,67.633c0,19.636-7.572,38.106-21.335,52.076c-0.146,0.125-0.285,0.256-0.423,0.392
				c-20.454,20.455-31.718,47.651-31.719,76.58c0.001,28.93,11.268,56.126,31.724,76.58c0.131,0.131,0.267,0.257,0.406,0.378
				c13.771,13.971,21.346,32.444,21.345,52.086C477.953,415.767,459.993,441.683,434.254,453.346z"/>
		</g>
	</g>
</g>
</svg>