<?xml version="1.0" encoding="iso-8859-1"?>
<!-- Uploaded to: SVG Repo, www.svgrepo.com, Generator: SVG Repo Mixer Tools -->
<svg fill="#000000" height="800px" width="800px" version="1.1" id="Layer_1" xmlns="http://www.w3.org/2000/svg" xmlns:xlink="http://www.w3.org/1999/xlink" viewBox="0 0 511.999 511.999" xml:space="preserve">
	<style type="text/css">
		.scale {
		transform-origin: center;
		transform-box: fill-box;
		animation: scale 5s linear infinite;
		}
		@keyframes scale {
		0% {
		transform: scale(0.5);
		}
		100% {
		transform: scale(1);
		}
		}
	</style>
	<g>
		<g>
			<g>
				<path d="M480.281,309.152l-1.299-1.298c-13.192-13.849-20.457-32.022-20.457-51.182c0-19.179,7.275-37.365,20.49-51.217
				l1.268-1.266c20.453-20.45,31.716-47.642,31.716-76.564c0-59.698-48.567-108.267-108.266-108.267l-24.67-0.001
				c-59.699,0.001-108.267,48.57-108.267,108.268c0,26.889,9.739,52.276,27.544,72.148c-15.956-2.192-30.738-9.483-42.289-21.034
				c-13.561-13.561-21.276-31.563-21.728-50.703l0.002-1.794c0.004-28.922-11.258-56.113-31.711-76.567
				c-20.418-20.419-47.606-31.664-76.556-31.664c-28.95,0-56.14,11.245-76.558,31.664L31.659,67.517
				c-42.213,42.214-42.212,110.901,0.001,153.113c20.45,20.45,47.636,31.713,76.567,31.712h0.008l1.845-0.002
				c19.114,0.467,37.094,8.181,50.641,21.728c13.567,13.567,21.281,31.578,21.728,50.722l-0.002,1.774
				c-0.002,28.922,11.26,56.113,31.713,76.567c18.364,18.363,42.445,29.384,68.254,31.344
				c17.866,35.275,54.478,59.513,96.649,59.513h24.67c59.697-0.001,108.266-48.57,108.267-108.27
				C511.999,356.795,500.736,329.605,480.281,309.152z M60.551,60.725c17.468-17.467,40.731-27.087,65.506-27.087
				c24.775,0,48.04,9.619,65.506,27.087c17.5,17.501,27.136,40.768,27.133,65.506l-0.002,1.882c0,0.061,0.001,0.123,0.002,0.184
				c0.522,23.213,9.863,45.052,26.304,61.491c16.427,16.426,38.245,25.767,61.439,26.302c0.061,0.001,0.1,0.004,0.186,0.002
				l1.924-0.001h0.02c1.227,0,2.46,0.024,3.691,0.072c0.622,0.951,1.218,1.916,1.793,2.892c-1.827-0.112-3.656-0.173-5.483-0.173
				c-0.196-0.002-0.392,0.006-0.584,0.021c-24.542-0.148-47.59-9.773-64.958-27.14c-17.367-17.367-26.991-40.412-27.141-64.949
				c0.015-0.191,0.022-0.382,0.022-0.574c0.001-24.002-9.344-46.568-26.316-63.541c-35.034-35.033-92.037-35.033-127.068-0.001
				c-3.78,3.78-7.126,7.828-10.091,12.066c-0.628,0.44-1.264,0.871-1.878,1.325l0.493,0.666
				c-23.007,34.861-19.182,82.351,11.478,113.01c16.97,16.971,39.532,26.316,63.532,26.316c0.184-0.001,0.388-0.006,0.579-0.022
				c24.537,0.149,47.583,9.774,64.952,27.142s26.994,40.416,27.141,64.955c-0.014,0.188-0.021,0.377-0.021,0.567
				c-0.003,24.002,9.343,46.569,26.317,63.54c7.574,7.576,16.265,13.623,25.874,18.048c0.044,1.037,0.1,2.07,0.173,3.099
				c-10.405-4.595-19.944-11.099-28.021-19.174c-17.501-17.501-27.137-40.768-27.133-65.513l0.001-1.862
				c0-0.058-0.001-0.117-0.002-0.175c-0.514-23.222-9.855-45.067-26.301-61.513c-16.424-16.424-38.237-25.765-61.423-26.304
				c-0.063-0.001-0.132,0.003-0.188-0.002l-1.94,0.001h-0.007c-24.744,0-48.008-9.637-65.506-27.135
				c-17.468-17.468-27.088-40.731-27.088-65.506C33.465,101.456,43.085,78.192,60.551,60.725z M171.75,80.541
				c-15.143-15.142-36.382-23.644-59.806-23.94c-4.518-0.059-9.058,0.216-13.57,0.771c26.755-10.713,58.532-5.258,80.167,16.377
				c13.886,13.886,21.591,32.301,21.737,51.915c-0.014,0.189-0.021,0.379-0.021,0.57c0,28.928,11.266,56.124,31.72,76.58
				c20.457,20.456,47.654,31.72,76.585,31.719c0.189,0,0.375-0.006,0.56-0.02c4.051,0.031,8.111,0.403,12.126,1.102
				c0.683,2.324,1.253,4.686,1.709,7.079c-10.237-3.928-21.175-5.972-32.248-5.971c-0.193,0-0.385,0.007-0.577,0.022
				c-24.537-0.149-47.579-9.775-64.945-27.141c-17.367-17.367-26.992-40.41-27.143-64.948c0.015-0.19,0.022-0.381,0.022-0.573
				C198.068,120.081,188.723,97.514,171.75,80.541z M225.212,392.08c-17.501-17.501-27.138-40.768-27.135-65.506l0.002-1.86
				c0-0.06-0.001-0.121-0.002-0.181c-0.515-23.221-9.856-45.066-26.304-61.514c-16.424-16.425-38.237-25.765-61.422-26.304
				c-0.065-0.001-0.139-0.003-0.192-0.002l-1.935,0.002h-0.007c-24.745,0-48.009-9.637-65.506-27.135
				c-23.231-23.231-31.495-55.828-24.844-85.746c-0.018,0.798-0.029,1.597-0.029,2.397c0.001,28.95,11.246,56.138,31.665,76.556
				c20.451,20.45,47.638,31.713,76.562,31.712h0.008l1.849-0.001c19.115,0.467,37.097,8.181,50.643,21.728
				c13.566,13.565,21.28,31.576,21.727,50.721l-0.001,1.774c-0.004,28.921,11.257,56.112,31.711,76.565
				c11.745,11.745,26.137,20.647,41.839,25.942c0.548,2.262,1.161,4.5,1.849,6.704C256.629,414.833,239.024,405.893,225.212,392.08z
				 M271.53,373.07c-5.613-3.232-10.788-7.191-15.453-11.855c-13.887-13.887-21.593-32.302-21.737-51.917
				c0.014-0.186,0.021-0.374,0.021-0.563c0.001-28.929-11.263-56.127-31.72-76.582c-20.456-20.456-47.652-31.721-76.578-31.721
				c-0.19,0-0.379,0.007-0.567,0.021c-19.614-0.146-38.034-7.851-51.918-21.737c-25.137-25.138-28.427-63.962-9.894-92.697
				c13.875-9.01,31.138-14.02,48.064-13.789c19.324,0.244,36.71,7.12,48.953,19.363c13.886,13.886,21.591,32.302,21.736,51.915
				c-0.014,0.19-0.021,0.379-0.021,0.571c0.001,28.928,11.267,56.123,31.722,76.577c20.456,20.457,47.653,31.722,76.581,31.721
				c0.193,0,0.382-0.007,0.573-0.022c11.468,0.089,22.739,2.826,32.892,7.953c-0.86,17.839-8.031,34.62-20.414,47.597l-1.254,1.251
				C285.075,326.591,274.32,348.932,271.53,373.07z M286.424,385.719c0-24.75,9.638-48.016,27.135-65.507l1.317-1.314
				c0.043-0.043,0.085-0.086,0.127-0.13c16.055-16.785,24.897-38.838,24.897-62.097c0-23.227-8.819-45.257-24.833-62.031
				c-0.044-0.046-0.088-0.091-0.132-0.135l-1.37-1.367c-17.501-17.497-27.139-40.763-27.139-65.514
				c0-32.169,16.485-60.557,41.449-77.172c-0.221,0.217-0.446,0.429-0.665,0.648c-20.47,20.47-31.744,47.647-31.744,76.524
				c0,28.924,11.266,56.115,31.721,76.568l1.307,1.305c13.187,13.845,20.447,32.015,20.447,51.175
				c0,19.187-7.28,37.377-20.505,51.231l-1.253,1.252c-20.454,20.448-31.718,47.64-31.718,76.562
				c0,30.191,12.426,57.529,32.425,77.185C302.919,446.29,286.424,417.896,286.424,385.719z M403.732,478.359
				c-51.081,0-92.639-41.559-92.639-92.641c0-24.748,9.638-48.014,27.139-65.509l1.317-1.316c0.041-0.042,0.082-0.083,0.123-0.126
				c16.055-16.783,24.897-38.836,24.897-62.095c0-23.227-8.819-45.256-24.832-62.031c-0.043-0.045-0.086-0.09-0.13-0.133
				l-1.373-1.371c-17.502-17.498-27.14-40.764-27.14-65.513c0-24.702,9.649-47.954,27.166-65.473
				c17.519-17.52,40.771-27.167,65.473-27.166c51.081,0,92.639,41.558,92.639,92.639c0,24.748-9.638,48.015-27.134,65.509
				l-1.332,1.328c-0.042,0.043-0.084,0.085-0.126,0.129c-16.046,16.782-24.883,38.83-24.883,62.081
				c0,23.229,8.823,45.262,24.845,62.04c0.042,0.044,0.085,0.089,0.128,0.131l1.364,1.362c17.5,17.498,27.138,40.764,27.139,65.511
				C496.372,436.801,454.813,478.359,403.732,478.359z" class="scale" />
			</g>
		</g>
	</g>
</svg>
