<!--?xml version="1.0" standalone="no"?-->
              <svg id="sw-js-blob-svg" viewBox="0 0 100 100" xmlns="http://www.w3.org/2000/svg" version="1.1">
                    <defs> 
                        <linearGradient id="sw-gradient" x1="0" x2="1" y1="1" y2="0">
                            <stop id="stop1" stop-color="rgba(248, 117, 55, 1)" offset="0%"></stop>
                            <stop id="stop2" stop-color="rgba(251, 168, 31, 1)" offset="100%"></stop>
                        </linearGradient>
                    </defs>
                <path fill="url(#sw-gradient)" d="M22,-26C28.8,-20.4,35,-13.8,36.6,-6.2C38.2,1.4,35.3,10.1,31.1,18.6C27,27.2,21.5,35.7,13.7,39.3C5.8,42.9,-4.4,41.6,-11.9,37C-19.4,32.4,-24.2,24.6,-27,16.9C-29.8,9.3,-30.6,1.9,-31.1,-7.3C-31.6,-16.4,-31.9,-27.4,-26.6,-33.2C-21.4,-39.1,-10.7,-39.9,-1.6,-38C7.6,-36.1,15.1,-31.6,22,-26Z" width="100%" height="100%" transform="translate(50 50)" stroke-width="0" style="transition: all 0.3s ease 0s;"></path>
              </svg>