<?xml version="1.0" encoding="utf-8"?>
<!-- Generator: Adobe Illustrator 27.0.0, SVG Export Plug-In . SVG Version: 6.00 Build 0)  -->
<svg version="1.1" id="Layer_1" xmlns="http://www.w3.org/2000/svg" xmlns:xlink="http://www.w3.org/1999/xlink" x="0px" y="0px"
	 viewBox="0 0 568 156" style="enable-background:new 0 0 568 156;" xml:space="preserve">
<style type="text/css">
	.st0{fill:#000000;}
	.st1{fill:#F39200;}
</style>
<g id="Layer_2_00000083088816675938391020000015173307819267373489_">
</g>
<g id="Layer_3">
</g>
<g>
	<path class="st0" d="M133.5,64.1c0,8.9-1.3,17.2-3.9,25s-6.4,14.6-11.3,20.3c-4.9,5.7-11,10.3-18.2,13.6
		c-7.2,3.3-15.3,4.9-24.4,4.9c-9.1,0-17.2-1.6-24.5-4.9c-7.2-3.3-13.3-7.8-18.2-13.6c-4.9-5.7-8.7-12.5-11.3-20.3s-3.9-16.1-3.9-25
		s1.3-17.2,3.9-25c2.6-7.8,6.4-14.5,11.3-20.3c4.9-5.7,11-10.3,18.2-13.6s15.4-4.9,24.5-4.9s17.2,1.6,24.4,4.9
		c7.2,3.3,13.2,7.8,18.2,13.6c4.9,5.7,8.7,12.5,11.3,20.3C132.2,46.9,133.5,55.2,133.5,64.1z M25.2,64.1c0,7.8,1.1,15.2,3.4,22.2
		c2.3,6.9,5.6,13,9.9,18.2c4.3,5.2,9.6,9.3,15.9,12.4c6.2,3.1,13.4,4.6,21.3,4.6c8,0,15-1.5,21.2-4.6s11.4-7.2,15.8-12.4
		c4.3-5.2,7.6-11.2,9.9-18.2c2.3-6.9,3.4-14.3,3.4-22.2s-1.1-15.2-3.4-22.2c-2.3-6.9-5.6-13-9.9-18.2c-4.3-5.2-9.6-9.3-15.8-12.4
		c-6.2-3.1-13.3-4.6-21.2-4.6c-8,0-15.1,1.5-21.3,4.6c-6.3,3.1-11.5,7.2-15.9,12.4c-4.3,5.2-7.6,11.2-9.9,18.2
		C26.4,48.9,25.2,56.3,25.2,64.1z"/>
	<path class="st0" d="M222.7,125h-6.5v-18.8h-0.3c-1.1,3.3-2.8,6.2-4.9,8.8c-2.1,2.6-4.5,4.7-7.3,6.6c-2.8,1.8-5.8,3.2-9.1,4.1
		c-3.3,0.9-6.6,1.4-10.1,1.4c-5.1,0-9.5-0.6-13-1.9c-3.6-1.2-6.5-2.9-8.8-4.9s-4.1-4.3-5.4-6.9s-2.2-5.1-2.8-7.8
		c-0.6-2.6-0.9-5.1-1-7.6c-0.1-2.4-0.2-4.6-0.2-6.4V37.4h6.5v55.4c0,2.3,0.2,5,0.5,8.3s1.3,6.4,3,9.4c1.6,3,4.1,5.6,7.4,7.8
		c3.3,2.2,8,3.2,14,3.2c4.9,0,9.3-0.9,13.2-2.7c3.9-1.8,7.2-4.3,10-7.6c2.7-3.2,4.8-7.1,6.2-11.6c1.4-4.5,2.1-9.4,2.1-14.7V37.5h6.5
		L222.7,125L222.7,125z"/>
	<path class="st0" d="M253.5,56.8h0.5c0.8-2.8,2.2-5.5,4.3-8c2.1-2.5,4.7-4.7,7.7-6.5s6.4-3.2,10.1-4.2s7.5-1.4,11.5-1.3v6.5
		c-3.4-0.5-7.3-0.1-11.7,1c-4.4,1.1-8.6,3.6-12.5,7.5c-1.6,1.7-3,3.4-4.2,4.9c-1.2,1.6-2.2,3.4-3,5.3s-1.4,4.1-1.9,6.5
		s-0.7,5.2-0.9,8.5v47.9H247V37.3h6.5V56.8z"/>
	<path class="st0" d="M387.3,38c-0.2-5.2-1.3-9.8-3.3-13.6c-2-3.9-4.7-7.1-8.1-9.7c-3.4-2.6-7.5-4.6-12.2-5.9c-4.7-1.3-9.9-2-15.4-2
		c-3.4,0-7.1,0.4-11,1.2s-7.6,2.2-10.9,4.2c-3.4,2-6.1,4.7-8.3,8c-2.2,3.4-3.2,7.5-3.2,12.5c0,4.9,1.2,8.9,3.6,11.9
		c2.4,3.1,5.5,5.5,9.4,7.4s8.3,3.4,13.3,4.5s10.1,2.2,15.2,3.2c5.2,1,10.3,2.2,15.3,3.7c4.9,1.4,9.4,3.4,13.3,5.8s7.1,5.6,9.5,9.5
		s3.6,8.8,3.6,14.7c0,6.4-1.4,11.7-4.1,16c-2.7,4.3-6.2,7.8-10.3,10.6c-4.2,2.7-8.8,4.7-13.8,5.9c-5.1,1.2-9.9,1.8-14.6,1.8
		c-7.2,0-13.9-0.8-20.1-2.3c-6.3-1.5-11.7-4-16.4-7.5c-4.7-3.5-8.3-7.9-11-13.4s-3-12.1-2.8-19.9h6.5c-0.3,6.7,0.6,12.4,2.9,17
		s5.4,8.4,9.5,11.3c4,3,8.8,5.1,14.2,6.4c5.5,1.3,11.2,2,17.2,2c3.6,0,7.5-0.5,11.7-1.4c4.1-0.9,8-2.4,11.4-4.6
		c3.5-2.2,6.4-5,8.7-8.5s3.5-8,3.5-13.3c0-5.1-1.2-9.3-3.6-12.5s-5.5-5.9-9.5-7.8c-3.9-2-8.4-3.6-13.3-4.8s-10-2.3-15.3-3.3
		c-5.1-1-10.2-2.2-15.2-3.6s-9.4-3.2-13.3-5.5s-7-5.3-9.4-9s-3.6-8.4-3.6-14.2s1.2-10.8,3.7-14.9c2.4-4.1,5.6-7.5,9.5-10.1
		s8.3-4.4,13.2-5.6c4.9-1.2,9.7-1.8,14.5-1.8c6.4,0,12.3,0.7,17.8,2.1c5.5,1.4,10.3,3.6,14.5,6.6c4.1,3,7.5,6.9,10,11.7
		s3.9,10.5,4.3,17.2L387.3,38L387.3,38z"/>
	<path class="st0" d="M409.9,37.3h7.7l32.6,80l30-80h7.3l-37.5,97c-1.8,4.3-3.5,8-5,11.2c-1.5,3.1-3.3,5.4-5.2,6.9
		c-2.3,1.8-5,2.9-8.1,3.3s-7.2,0.6-12.4,0.6v-5.6c4.7,0,8.3-0.4,10.9-1.1c2.6-0.7,5.1-2.2,7.3-4.5c1.2-1.3,2.6-3.6,3.9-6.9
		c1.4-3.4,3.1-7.9,5.1-13.7L409.9,37.3z"/>
	<path class="st0" d="M504.4,95.8c0.2,4.1,1.1,7.7,2.7,10.8c1.6,3.1,3.7,5.8,6.2,8c2.5,2.2,5.5,3.9,9,5c3.4,1.1,7.1,1.7,11.1,1.7
		c2.8,0,5.9-0.3,9.1-0.8c3.2-0.5,6.2-1.4,9-2.8s5.1-3.3,6.9-5.7c1.8-2.4,2.7-5.5,2.7-9.3c0-4.9-1.5-8.6-4.4-11.1
		c-3-2.5-6.7-4.4-11.2-5.8s-9.3-2.5-14.5-3.3c-5.2-0.9-10-2.1-14.5-3.8c-4.5-1.7-8.2-4.1-11.2-7.2s-4.4-7.7-4.4-13.7
		c0-4.3,1-7.9,2.9-10.8s4.4-5.2,7.4-6.9c3-1.7,6.4-2.9,10.1-3.7c3.8-0.7,7.5-1.1,11.3-1.1c4.5,0,8.8,0.5,12.8,1.5s7.4,2.7,10.3,4.9
		c2.9,2.3,5.2,5.2,6.8,8.7s2.5,7.8,2.5,12.8h-6.5c0-4-0.7-7.4-2-10.2c-1.3-2.8-3.1-5.1-5.5-6.9c-2.3-1.8-5.1-3.1-8.3-3.9
		c-3.2-0.9-6.6-1.3-10.2-1.3c-3,0-5.9,0.3-9,0.9c-3,0.6-5.7,1.5-8.1,2.9c-2.4,1.4-4.3,3.1-5.9,5.3c-1.5,2.2-2.3,4.8-2.3,7.8
		c0,3.5,0.9,6.4,2.6,8.5c1.7,2.2,3.9,3.9,6.7,5.2c2.8,1.3,5.9,2.4,9.4,3.2c3.5,0.8,7,1.6,10.5,2.4c4.3,0.8,8.4,1.7,12.2,2.8
		c3.8,1.1,7.1,2.6,9.9,4.4c2.8,1.9,5,4.3,6.6,7.2c1.6,3,2.4,6.7,2.4,11.3c0,4.8-1.1,8.7-3.2,11.8c-2.2,3.1-4.9,5.5-8.2,7.4
		s-7,3.2-11,3.9c-4,0.7-8,1.1-11.8,1.1c-5,0-9.6-0.7-13.9-2c-4.3-1.3-8-3.3-11.2-6s-5.7-5.9-7.5-9.8s-2.8-8.4-2.9-13.5h6.6V95.8z"/>
</g>
<polygon class="st1" points="0.5,86.7 60.9,61.5 0.5,38.5 "/>
<g id="Layer_4">
</g>
</svg>
